<svg width="150" height="175" viewBox="0 0 150 175" fill="none" xmlns="http://www.w3.org/2000/svg">
<path d="M112.286 174.667L118.524 137.238L106.048 174.667H112.286Z" fill="#9810FA" style="fill:#9810FA;fill:color(display-p3 0.5961 0.0627 0.9804);fill-opacity:1;"/>
<path d="M99.8095 174.667L81.0952 137.238V174.667H99.8095Z" fill="#9810FA" style="fill:#9810FA;fill:color(display-p3 0.5961 0.0627 0.9804);fill-opacity:1;"/>
<path d="M131 81.0953L124.762 74.8572V118.524L131 81.0953Z" fill="#9810FA" style="fill:#9810FA;fill:color(display-p3 0.5961 0.0627 0.9804);fill-opacity:1;"/>
<path d="M131 56.1429H149.714L131 74.8572V56.1429Z" fill="#9810FA" style="fill:#9810FA;fill:color(display-p3 0.5961 0.0627 0.9804);fill-opacity:1;"/>
<path d="M112.286 56.1429L131 37.4286V74.8572L112.286 56.1429Z" fill="#8200DB" style="fill:#8200DB;fill:color(display-p3 0.5098 0.0000 0.8588);fill-opacity:1;"/>
<path d="M149.714 56.1429L131 37.4286V56.1429H149.714Z" fill="#AD46FF" style="fill:#AD46FF;fill:color(display-p3 0.6784 0.2745 1.0000);fill-opacity:1;"/>
<path d="M81.0955 118.524L49.905 93.5714V149.714L81.0955 118.524Z" fill="#8200DB" style="fill:#8200DB;fill:color(display-p3 0.5098 0.0000 0.8588);fill-opacity:1;"/>
<path d="M0 174.667L24.9524 118.524L49.9048 149.714L0 174.667Z" fill="#8200DB" style="fill:#8200DB;fill:color(display-p3 0.5098 0.0000 0.8588);fill-opacity:1;"/>
<path d="M0 174.667L49.9048 149.714L31.1905 174.667H0Z" fill="#8200DB" style="fill:#8200DB;fill:color(display-p3 0.5098 0.0000 0.8588);fill-opacity:1;"/>
<path d="M31.1907 43.6667L37.4288 3.05176e-05L68.6192 31.1905L31.1907 43.6667Z" fill="#9810FA" style="fill:#9810FA;fill:color(display-p3 0.5961 0.0627 0.9804);fill-opacity:1;"/>
<path d="M0 87.3334L31.1905 56.1429L49.9048 81.0953L0 87.3334Z" fill="#8200DB" style="fill:#8200DB;fill:color(display-p3 0.5098 0.0000 0.8588);fill-opacity:1;"/>
<path d="M112.286 31.1904L31.1907 56.1428L49.905 81.0952L112.286 31.1904Z" fill="#9810FA" style="fill:#9810FA;fill:color(display-p3 0.5961 0.0627 0.9804);fill-opacity:1;"/>
<path d="M62.3809 87.3333L87.3332 62.3809V112.286L62.3809 87.3333Z" fill="#8200DB" style="fill:#8200DB;fill:color(display-p3 0.5098 0.0000 0.8588);fill-opacity:1;"/>
<path d="M99.8097 74.8571L87.3335 62.3809V74.8571H99.8097Z" fill="#9810FA" style="fill:#9810FA;fill:color(display-p3 0.5961 0.0627 0.9804);fill-opacity:1;"/>
<path d="M24.9524 118.524L37.4286 93.5714H49.9048L24.9524 118.524Z" fill="#8200DB" style="fill:#8200DB;fill:color(display-p3 0.5098 0.0000 0.8588);fill-opacity:1;"/>
<path d="M24.9524 118.524L49.9048 93.5714V149.714L24.9524 118.524Z" fill="#9810FA" style="fill:#9810FA;fill:color(display-p3 0.5961 0.0627 0.9804);fill-opacity:1;"/>
<path d="M87.3335 124.762H124.762L93.5716 149.714L87.3335 124.762Z" fill="#AD46FF" style="fill:#AD46FF;fill:color(display-p3 0.6784 0.2745 1.0000);fill-opacity:1;"/>
<path d="M43.6665 174.667L81.0951 137.238V174.667H43.6665Z" fill="#8200DB" style="fill:#8200DB;fill:color(display-p3 0.5098 0.0000 0.8588);fill-opacity:1;"/>
<path d="M112.286 118.524L124.762 74.8572V118.524H112.286Z" fill="#8200DB" style="fill:#8200DB;fill:color(display-p3 0.5098 0.0000 0.8588);fill-opacity:1;"/>
<path d="M106.048 149.714L118.524 137.238L106.048 174.667V149.714Z" fill="#8200DB" style="fill:#8200DB;fill:color(display-p3 0.5098 0.0000 0.8588);fill-opacity:1;"/>
</svg>
