<svg width="575" height="175" viewBox="0 0 575 175" fill="none" xmlns="http://www.w3.org/2000/svg">
<path d="M112.286 174.667L118.524 137.238L106.048 174.667H112.286Z" fill="#9810FA" style="fill:#9810FA;fill:color(display-p3 0.5961 0.0627 0.9804);fill-opacity:1;"/>
<path d="M99.8095 174.667L81.0952 137.238V174.667H99.8095Z" fill="#9810FA" style="fill:#9810FA;fill:color(display-p3 0.5961 0.0627 0.9804);fill-opacity:1;"/>
<path d="M131 81.0953L124.762 74.8572V118.524L131 81.0953Z" fill="#9810FA" style="fill:#9810FA;fill:color(display-p3 0.5961 0.0627 0.9804);fill-opacity:1;"/>
<path d="M131 56.1429H149.714L131 74.8572V56.1429Z" fill="#9810FA" style="fill:#9810FA;fill:color(display-p3 0.5961 0.0627 0.9804);fill-opacity:1;"/>
<path d="M112.286 56.1429L131 37.4286V74.8572L112.286 56.1429Z" fill="#8200DB" style="fill:#8200DB;fill:color(display-p3 0.5098 0.0000 0.8588);fill-opacity:1;"/>
<path d="M149.714 56.1429L131 37.4286V56.1429H149.714Z" fill="#AD46FF" style="fill:#AD46FF;fill:color(display-p3 0.6784 0.2745 1.0000);fill-opacity:1;"/>
<path d="M81.0953 118.524L49.9048 93.5714V149.714L81.0953 118.524Z" fill="#8200DB" style="fill:#8200DB;fill:color(display-p3 0.5098 0.0000 0.8588);fill-opacity:1;"/>
<path d="M0 174.667L24.9524 118.524L49.9048 149.714L0 174.667Z" fill="#8200DB" style="fill:#8200DB;fill:color(display-p3 0.5098 0.0000 0.8588);fill-opacity:1;"/>
<path d="M0 174.667L49.9048 149.714L31.1905 174.667H0Z" fill="#8200DB" style="fill:#8200DB;fill:color(display-p3 0.5098 0.0000 0.8588);fill-opacity:1;"/>
<path d="M31.1904 43.6667L37.4285 3.05176e-05L68.619 31.1905L31.1904 43.6667Z" fill="#9810FA" style="fill:#9810FA;fill:color(display-p3 0.5961 0.0627 0.9804);fill-opacity:1;"/>
<path d="M0 87.3334L31.1905 56.1429L49.9048 81.0953L0 87.3334Z" fill="#8200DB" style="fill:#8200DB;fill:color(display-p3 0.5098 0.0000 0.8588);fill-opacity:1;"/>
<path d="M112.286 31.1904L31.1904 56.1428L49.9047 81.0952L112.286 31.1904Z" fill="#9810FA" style="fill:#9810FA;fill:color(display-p3 0.5961 0.0627 0.9804);fill-opacity:1;"/>
<path d="M62.3809 87.3333L87.3332 62.381V112.286L62.3809 87.3333Z" fill="#8200DB" style="fill:#8200DB;fill:color(display-p3 0.5098 0.0000 0.8588);fill-opacity:1;"/>
<path d="M99.8097 74.8571L87.3335 62.381V74.8571H99.8097Z" fill="#9810FA" style="fill:#9810FA;fill:color(display-p3 0.5961 0.0627 0.9804);fill-opacity:1;"/>
<path d="M24.9521 118.524L37.4283 93.5714H49.9045L24.9521 118.524Z" fill="#8200DB" style="fill:#8200DB;fill:color(display-p3 0.5098 0.0000 0.8588);fill-opacity:1;"/>
<path d="M24.9521 118.524L49.9045 93.5714V149.714L24.9521 118.524Z" fill="#9810FA" style="fill:#9810FA;fill:color(display-p3 0.5961 0.0627 0.9804);fill-opacity:1;"/>
<path d="M87.3335 124.762H124.762L93.5716 149.714L87.3335 124.762Z" fill="#AD46FF" style="fill:#AD46FF;fill:color(display-p3 0.6784 0.2745 1.0000);fill-opacity:1;"/>
<path d="M43.6665 174.667L81.0951 137.238V174.667H43.6665Z" fill="#8200DB" style="fill:#8200DB;fill:color(display-p3 0.5098 0.0000 0.8588);fill-opacity:1;"/>
<path d="M112.286 118.524L124.762 74.8572V118.524H112.286Z" fill="#8200DB" style="fill:#8200DB;fill:color(display-p3 0.5098 0.0000 0.8588);fill-opacity:1;"/>
<path d="M106.048 149.714L118.524 137.238L106.048 174.667V149.714Z" fill="#8200DB" style="fill:#8200DB;fill:color(display-p3 0.5098 0.0000 0.8588);fill-opacity:1;"/>
<path d="M231.362 132.333V42.7333H248.898L281.538 95.8533L270.018 95.7253L303.042 42.7333H319.81V132.333H300.994V101.613C300.994 93.9333 301.165 87.0213 301.506 80.8773C301.933 74.7333 302.616 68.632 303.554 62.5733L305.858 68.5893L279.618 109.293H271.17L245.442 68.8453L247.618 62.5733C248.557 68.2907 249.197 74.1787 249.538 80.2373C249.965 86.2107 250.178 93.336 250.178 101.613V132.333H231.362ZM365.896 133.613C360.264 133.613 355.187 132.077 350.664 129.005C346.142 125.933 342.558 121.752 339.912 116.461C337.267 111.171 335.944 105.112 335.944 98.2853C335.944 91.4587 337.267 85.4427 339.912 80.2373C342.643 74.9467 346.312 70.808 350.92 67.8213C355.528 64.7493 360.776 63.2133 366.664 63.2133C369.992 63.2133 373.022 63.7253 375.752 64.7493C378.568 65.688 381 67.0107 383.048 68.7173C385.182 70.424 386.974 72.3867 388.424 74.6053C389.875 76.824 390.899 79.2133 391.496 81.7733L387.656 81.1333V64.6213H405.704V132.333H387.4V116.077L391.496 115.693C390.814 118.083 389.704 120.344 388.168 122.477C386.632 124.611 384.712 126.531 382.408 128.237C380.19 129.859 377.672 131.181 374.856 132.205C372.04 133.144 369.054 133.613 365.896 133.613ZM370.888 117.869C374.302 117.869 377.288 117.059 379.848 115.437C382.408 113.816 384.371 111.555 385.736 108.653C387.187 105.667 387.912 102.211 387.912 98.2853C387.912 94.4453 387.187 91.0747 385.736 88.1733C384.371 85.272 382.408 83.0107 379.848 81.3893C377.288 79.6827 374.302 78.8293 370.888 78.8293C367.56 78.8293 364.616 79.6827 362.056 81.3893C359.582 83.0107 357.619 85.272 356.168 88.1733C354.718 91.0747 353.992 94.4453 353.992 98.2853C353.992 102.211 354.718 105.667 356.168 108.653C357.619 111.555 359.582 113.816 362.056 115.437C364.616 117.059 367.56 117.869 370.888 117.869ZM454.775 161.773C449.399 161.773 444.109 160.963 438.903 159.341C433.698 157.805 429.474 155.8 426.231 153.325L432.631 140.269C434.338 141.464 436.301 142.531 438.519 143.469C440.738 144.408 443.042 145.133 445.431 145.645C447.906 146.157 450.423 146.413 452.983 146.413C457.421 146.413 461.047 145.731 463.863 144.365C466.765 143 468.941 140.952 470.391 138.221C471.842 135.576 472.567 132.163 472.567 127.981V116.205L475.639 116.845C475.127 119.661 473.719 122.264 471.415 124.653C469.111 126.957 466.21 128.835 462.711 130.285C459.213 131.651 455.629 132.333 451.959 132.333C445.645 132.333 440.055 130.883 435.191 127.981C430.327 125.08 426.487 121.069 423.671 115.949C420.855 110.829 419.447 104.941 419.447 98.2853C419.447 91.4587 420.813 85.4427 423.543 80.2373C426.359 74.9467 430.157 70.808 434.935 67.8213C439.799 64.7493 445.303 63.2133 451.447 63.2133C454.007 63.2133 456.439 63.512 458.743 64.1093C461.133 64.7067 463.309 65.56 465.271 66.6693C467.319 67.6933 469.111 68.888 470.647 70.2533C472.269 71.5333 473.591 72.9413 474.615 74.4773C475.639 76.0133 476.279 77.5493 476.535 79.0853L472.823 80.1093L473.335 64.6213H490.743V127.213C490.743 132.76 489.933 137.667 488.311 141.933C486.69 146.2 484.301 149.784 481.143 152.685C478.071 155.672 474.274 157.933 469.751 159.469C465.314 161.005 460.322 161.773 454.775 161.773ZM455.287 117.741C458.871 117.741 461.986 116.931 464.631 115.309C467.362 113.688 469.453 111.427 470.903 108.525C472.354 105.624 473.079 102.211 473.079 98.2853C473.079 94.4453 472.354 91.0747 470.903 88.1733C469.453 85.1867 467.362 82.8827 464.631 81.2613C461.986 79.64 458.871 78.8293 455.287 78.8293C451.789 78.8293 448.674 79.6827 445.943 81.3893C443.298 83.0107 441.25 85.272 439.799 88.1733C438.349 91.0747 437.623 94.4453 437.623 98.2853C437.623 102.125 438.349 105.539 439.799 108.525C441.25 111.427 443.298 113.688 445.943 115.309C448.674 116.931 451.789 117.741 455.287 117.741ZM540.93 133.613C533.592 133.613 527.192 132.12 521.73 129.133C516.269 126.147 512.002 122.051 508.93 116.845C505.858 111.64 504.322 105.667 504.322 98.9253C504.322 93.72 505.176 88.9413 506.882 84.5893C508.589 80.2373 510.978 76.4827 514.05 73.3253C517.122 70.0827 520.749 67.608 524.93 65.9013C529.197 64.1093 533.805 63.2133 538.754 63.2133C543.362 63.2133 547.629 64.0667 551.554 65.7733C555.48 67.3947 558.85 69.7413 561.666 72.8133C564.568 75.8 566.786 79.3413 568.322 83.4373C569.858 87.5333 570.541 92.0133 570.37 96.8773L570.242 102.509H515.842L512.898 91.3733H555.266L553.218 93.6773V90.8613C553.048 88.5573 552.28 86.4667 550.914 84.5893C549.634 82.712 547.97 81.2613 545.922 80.2373C543.874 79.2133 541.57 78.7013 539.01 78.7013C535.256 78.7013 532.056 79.4267 529.41 80.8773C526.85 82.328 524.888 84.4613 523.522 87.2773C522.157 90.0933 521.474 93.5067 521.474 97.5173C521.474 101.613 522.328 105.155 524.034 108.141C525.826 111.128 528.301 113.475 531.458 115.181C534.701 116.803 538.498 117.613 542.85 117.613C545.837 117.613 548.568 117.144 551.042 116.205C553.517 115.267 556.162 113.645 558.978 111.341L567.682 123.501C565.208 125.72 562.477 127.597 559.49 129.133C556.504 130.584 553.432 131.693 550.274 132.461C547.117 133.229 544.002 133.613 540.93 133.613Z" fill="white" style="fill:white;fill-opacity:1;"/>
</svg>
